<?xml version="1.0" encoding="UTF-8" standalone="no"?>
<svg
   xmlns:dc="http://purl.org/dc/elements/1.1/"
   xmlns:cc="http://creativecommons.org/ns#"
   xmlns:rdf="http://www.w3.org/1999/02/22-rdf-syntax-ns#"
   xmlns:svg="http://www.w3.org/2000/svg"
   xmlns="http://www.w3.org/2000/svg"
   id="svg1157"
   version="1.1"
   viewBox="0 0 210 297"
   height="297mm"
   width="210mm">
  <defs
     id="defs1151" />
  <metadata
     id="metadata1154">
    <rdf:RDF>
      <cc:Work
         rdf:about="">
        <dc:format>image/svg+xml</dc:format>
        <dc:type
           rdf:resource="http://purl.org/dc/dcmitype/StillImage" />
        <dc:title></dc:title>
      </cc:Work>
    </rdf:RDF>
  </metadata>
  <g
     id="layer1">
    <path
       id="path817"
       d="m 31.807784,21.361678 c -0.231122,-0.764676 -1.083975,-2.836009 -1.083975,-2.836009 0,0 25.758633,-2.008883 35.878678,-0.759454 20.250027,2.175029 37.303533,-0.221151 48.898533,2.082122 7.05421,1.585548 25.84032,0.492572 25.84032,0.492572 0,0 11.88992,-2.065785 15.9423,-1.602623 4.05237,0.46319 9.59145,1.116791 9.59145,1.116791 0,0 1.17551,1.71855 -0.51325,3.268656"
       style="fill:none;stroke:#000000;stroke-width:0.66589302;stroke-linecap:round;stroke-linejoin:round;stroke-miterlimit:4;stroke-dasharray:none;stroke-opacity:1" />
    <path
       id="path819"
       d="m 31.524974,27.127846 c -0.03952,-0.153118 -1.537028,-3.2518 -1.537028,-3.2518 0,0 12.043,-0.97834 15.285111,-1.206034 3.889611,-0.273186 15.051883,-0.375275 17.06884,-0.284432 2.963836,0.133666 16.320083,1.229617 19.15913,1.615629 2.839036,0.386011 12.986616,1.976487 12.986616,1.976487 0,0 14.094157,2.800358 17.441867,2.424201 3.34771,-0.376132 19.87467,-0.763508 20.94897,-0.804778 1.0743,-0.04127 23.71291,0.210958 26.65153,-0.28122 4.6783,-0.783555 13.10132,0.539389 13.10132,0.539389 l 2.01966,2.251536"
       style="fill:none;stroke:#000000;stroke-width:0.66589302;stroke-linecap:butt;stroke-linejoin:round;stroke-miterlimit:4;stroke-dasharray:none;stroke-opacity:1" />
    <path
       id="path821"
       d="m 31.533456,29.974217 c -1.51159,-0.839248 -1.412573,-2.637714 -1.412573,-2.637714 0,0 10.174066,-1.252542 17.02611,-1.396706 7.12202,-0.149838 20.996431,0.431103 20.996431,0.431103 0,0 18.718278,0.642384 23.053479,1.465996 4.335204,0.823611 20.735447,4.164446 23.834127,4.282702 4.84862,0.18505 18.29168,0.03993 20.96796,-0.310403 3.66342,-0.479592 15.78853,-1.292007 17.81759,-1.798426 2.93059,-0.73142 20.83441,0.09605 20.83441,0.09605 l 2.89131,1.848991"
       style="fill:none;stroke:#000000;stroke-width:0.66589302;stroke-linecap:butt;stroke-linejoin:round;stroke-miterlimit:4;stroke-dasharray:none;stroke-opacity:1" />
    <path
       id="path823"
       d="m 29.455557,36.273468 c 0.843201,-0.805948 -1.269637,-3.292999 -1.269637,-3.292999 0,0 35.216731,-0.4865 40.348165,0.059 5.131436,0.545472 19.964855,1.584648 21.039164,1.543378 1.074305,-0.04127 17.024771,2.068909 18.238101,2.14606 1.21334,0.07715 14.05143,1.688056 18.06585,1.162524 4.01439,-0.525532 28.81024,-2.71577 31.49599,-2.818947 2.68578,-0.103177 8.59443,-0.330164 11.67832,-0.572398 0,0 11.14764,-1.670813 15.05429,-1.470812"
       style="fill:none;stroke:#000000;stroke-width:0.66589302;stroke-linecap:round;stroke-linejoin:round;stroke-miterlimit:4;stroke-dasharray:none;stroke-opacity:1" />
    <path
       id="path825"
       d="M 28.393808,41.017524 26.922399,38.59864 c 0,0 17.016616,-1.643866 23.366142,-0.897636 6.349527,0.746255 19.30765,1.981209 22.674354,2.099426 3.366698,0.118188 9.457145,1.121922 13.749621,0.83326 4.292472,-0.288663 16.522194,-0.510957 23.020244,0.600881 6.49807,1.111837 19.67729,1.100619 19.67729,1.100619 l 26.18146,-1.129553 c 10.79118,0.202996 22.21895,-4.025831 32.65639,-3.084391 l -0.45285,2.930245"
       style="fill:none;stroke:#000000;stroke-width:0.66589302;stroke-linecap:butt;stroke-linejoin:round;stroke-miterlimit:4;stroke-dasharray:none;stroke-opacity:1" />
    <path
       id="path819-2"
       d="m 31.260122,23.734339 -0.906377,-2.111104 c 0,0 12.311579,-0.988631 15.553689,-1.216351 3.889611,-0.273186 15.051882,-0.375276 17.068841,-0.284405 2.963834,0.133666 16.320082,1.22959 19.159126,1.615602 2.839038,0.386012 12.430472,1.502776 12.430472,1.502776 0,0 14.116327,-0.204486 17.481207,-0.05269 4.44575,0.200499 21.13811,0.43699 22.20976,0.508255 4.71909,0.313787 19.01527,-0.08567 24.72328,-0.578486 3.99348,-0.344829 10.13858,0.470704 10.13858,0.470704 0,0 0.77871,3.174271 1.68126,3.913155"
       style="fill:none;stroke:#000000;stroke-width:0.66589302;stroke-linecap:round;stroke-linejoin:round;stroke-miterlimit:4;stroke-dasharray:none;stroke-opacity:1" />
    <path
       id="path821-7"
       d="m 30.841672,32.97128 -1.760915,-2.715746 c 0,0 12.474559,-0.850539 17.040357,-1.025939 4.565798,-0.1754 21.399294,0.415627 21.399294,0.415627 0,0 18.301171,0.287094 22.636373,1.110732 4.335204,0.823611 22.351649,4.226121 25.450329,4.344378 4.84862,0.185049 16.68023,0.101839 19.35648,-0.248525 3.66343,-0.479564 15.79043,-1.393102 17.81287,-1.921979 3.32871,-0.870505 16.25361,-0.500638 16.25361,-0.500638 l 8.51223,-0.473321 6.5635,1.07343 -0.45231,2.611715"
       style="fill:none;stroke:#000000;stroke-width:0.66589302;stroke-linecap:round;stroke-linejoin:round;stroke-miterlimit:4;stroke-dasharray:none;stroke-opacity:1" />
    <path
       id="path857"
       d="m 27.229817,46.600946 c 0.105793,-0.746693 -1.311859,-2.641612 -1.311859,-2.641612 0,0 33.202412,-0.409117 43.316752,0.316245 10.114342,0.725389 29.346038,0.72921 33.36519,0.327257 4.01915,-0.401924 18.75151,1.507498 22.65063,1.481473 3.8991,-0.02603 26.11837,0.729414 31.87853,0.136817 5.76015,-0.592597 14.01021,-1.332097 14.01021,-1.332097 l 9.85264,-1.325457 c 0,0 7.53559,-0.639566 9.26829,-0.09349 l -0.12908,2.380579"
       style="fill:none;stroke:#000000;stroke-width:0.66589302;stroke-linecap:butt;stroke-linejoin:round;stroke-miterlimit:4;stroke-dasharray:none;stroke-opacity:1" />
    <path
       id="path859"
       d="m 26.149584,52.614318 c 0.459328,-0.296125 -1.629436,-3.031653 -1.629436,-3.031653 0,0 15.122339,-1.942409 30.766235,-0.810605 15.643894,1.131803 30.966988,0.914464 33.911828,0.553782 2.94485,-0.360654 21.299599,-2.179715 29.835729,-0.527307 9.58667,0.993185 20.57458,-0.04779 28.77564,-0.115294 7.69241,0.69464 15.42621,2.400368 21.07186,1.157088 0,0 7.98015,-1.390253 12.81738,-1.490387 2.47054,-0.05115 8.25446,-0.492143 11.2077,0.882213 l -0.35744,0.919452"
       style="fill:none;stroke:#000000;stroke-width:0.66589302;stroke-linecap:butt;stroke-linejoin:round;stroke-miterlimit:4;stroke-dasharray:none;stroke-opacity:1" />
    <path
       id="path861"
       d="m 25.620356,59.382855 c -1.125833,-0.263981 -2.360767,-3.565294 -2.360767,-3.565294 0,0 5.189763,-1.437049 10.983141,-1.164559 7.2753,0.339378 23.963562,0.233518 28.813631,0.873426 17.437116,2.30062 27.701344,-0.07403 32.511983,-0.877671 4.139194,-0.777877 13.981566,-3.631366 19.530116,-2.730603 5.54854,0.900788 10.07499,3.202283 14.75609,2.527376 4.68111,-0.674907 15.3976,-2.804367 18.50521,-2.428646 3.10763,0.375693 12.93622,7.138164 20.46761,5.158526 0,0 14.72418,-4.325554 18.47657,-4.75444 2.16998,-0.247932 7.34685,0.636719 7.34685,0.636719 0,0 0.0163,1.662218 -1.30468,1.931765 -1.32101,0.269547 -9.42679,2.156268 -19.4775,4.161463 -10.05073,2.005224 -13.22959,0.945828 -19.55664,-1.611686 -9.6377,-4.08883 -19.78528,0.137584 -29.85987,0.0093 -2.04826,-0.09635 -9.89676,-1.41393 -13.2219,-1.329952 -2.65858,0.06723 -16.519487,1.947383 -19.493821,2.499243 -2.974327,0.551861 -19.201744,1.437814 -27.285962,0.173051 -8.084212,-1.264789 -22.626399,0.169062 -27.638451,-0.338552 -5.012051,-0.507586 -11.19161,0.830489 -11.19161,0.830489 z"
       style="fill:none;stroke:#000000;stroke-width:0.66589302;stroke-linecap:butt;stroke-linejoin:round;stroke-miterlimit:4;stroke-dasharray:none;stroke-opacity:1" />
    <path
       id="path877"
       d="m 29.295333,38.229002 c -0.483066,-0.321802 -1.296372,-1.653233 -1.296372,-1.653233 0,0 13.648382,-1.888766 24.197014,-1.367154 10.956873,0.541769 23.075813,2.08913 28.51608,2.142695 6.650107,0.06548 27.919495,1.465484 32.219365,2.000457 4.29662,0.558025 18.74374,1.386208 28.49811,0.43678 14.78763,-0.781245 30.30279,-2.895958 44.20131,-4.192326 l -0.54425,2.341307"
       style="fill:none;stroke:#000000;stroke-width:0.66589302;stroke-linecap:square;stroke-linejoin:round;stroke-miterlimit:4;stroke-dasharray:none;stroke-opacity:1" />
    <path
       id="path879"
       d="m 27.559428,43.80344 c 0.676526,-0.768591 -1.38333,-2.694223 -1.38333,-2.694223 0,0 17.953413,-0.514662 24.149057,-0.140037 6.195647,0.374625 24.385971,1.076111 26.481719,1.17064 2.095747,0.09453 3.160405,0.578719 8.386347,0.465479 5.225939,-0.113236 17.756779,-0.682147 21.954999,-0.318308 4.19821,0.363839 21.02127,2.605657 25.49092,2.608989 4.46965,0.0033 17.78365,0.01698 21.57517,-0.303716 3.79153,-0.320695 14.39303,-1.603134 14.39303,-1.603134 0,0 14.0305,-2.376883 17.80139,-1.996655 3.63989,0.367059 4.25408,0.580492 4.25408,0.580492 l -0.86987,1.598677"
       style="fill:none;stroke:#000000;stroke-width:0.66589302;stroke-linecap:butt;stroke-linejoin:round;stroke-miterlimit:4;stroke-dasharray:none;stroke-opacity:1" />
    <path
       id="path881"
       d="m 26.526165,49.289004 -1.362922,-2.364661 c 0,0 13.188823,-0.769223 21.934852,-0.842652 8.746031,-0.07343 23.246495,1.119885 25.908623,1.105136 2.662122,-0.01474 28.666662,-1.363821 35.730342,-0.672464 7.06368,0.69133 22.98848,1.829954 27.25144,1.403629 4.26294,-0.426325 26.79225,0.589832 31.66402,-0.07868 l 10.26245,-1.444452 c 0,0 10.77631,-1.68302 13.78711,-0.04829 l -0.99878,2.143163"
       style="fill:none;stroke:#000000;stroke-width:0.66589302;stroke-linecap:butt;stroke-linejoin:round;stroke-miterlimit:4;stroke-dasharray:none;stroke-opacity:1" />
    <path
       id="path883"
       d="m 26.050229,55.279188 c 0.243634,-0.659152 -1.699861,-2.284842 -1.699861,-2.284842 0,0 7.261263,-1.591717 13.938403,-1.060551 6.677138,0.53114 23.436406,1.112589 27.329602,0.963028 3.893203,-0.149562 14.310554,1.20061 20.64911,0.34447 6.338561,-0.856141 22.502197,-3.40249 26.208827,-3.457365 3.70666,-0.05488 15.63228,3.425319 20.46162,2.889742 4.82934,-0.535602 12.17211,-2.48053 16.55351,-2.298795 4.38142,0.181761 10.05051,2.939618 17.88437,2.638672 0,0 11.3439,-0.523303 16.23292,-1.98016 4.88905,-1.456827 10.67752,-0.541469 10.67752,-0.541469 l -0.59672,2.215023"
       style="fill:none;stroke:#000000;stroke-width:0.66600001;stroke-linecap:butt;stroke-linejoin:round;stroke-miterlimit:4;stroke-dasharray:none;stroke-opacity:1" />
    <path
       id="path908"
       d="M 188.2479,38.121246 Z"
       style="fill:none;stroke:#000000;stroke-width:0.73988116px;stroke-linecap:butt;stroke-linejoin:miter;stroke-opacity:1" />
    <path
       id="path819-9"
       d="m 25.728534,106.11917 c 0.880979,-2.44736 -0.296421,-7.716089 -0.296421,-7.716089 0,0 12.043001,-0.978313 15.285114,-1.206034 3.889608,-0.273186 15.051885,-0.375275 17.068844,-0.284405 2.96384,0.133666 16.320085,1.22959 19.159129,1.615602 2.839038,0.386011 12.986618,1.976486 12.986618,1.976486 0,0 13.857252,1.58422 17.204962,1.20806 3.3477,-0.37613 20.11157,0.45265 21.18586,0.41138 1.07431,-0.0413 23.71291,0.21095 26.65153,-0.28123 4.67831,-0.78356 13.10133,0.53942 13.10133,0.53942 0,0 -0.0802,4.57858 2.18314,6.50716"
       style="fill:none;stroke:#000000;stroke-width:0.66589302;stroke-linecap:round;stroke-linejoin:round;stroke-miterlimit:4;stroke-dasharray:none;stroke-opacity:1" />
    <path
       id="path821-3"
       d="m 24.797401,111.87531 c 1.513201,-1.7445 0.931133,-5.75614 0.931133,-5.75614 0,0 10.174072,-1.25254 17.026113,-1.39671 7.122023,-0.14984 20.996437,0.43111 20.996437,0.43111 0,0 18.718274,0.64238 23.053478,1.466 4.335203,0.82362 21.254838,2.83174 24.353508,2.95003 4.84863,0.18502 17.77232,1.37267 20.44857,1.0223 3.66343,-0.47959 15.78853,-1.29202 17.81759,-1.79841 2.93063,-0.73145 20.83441,0.096 20.83441,0.096 0,0 0.3794,3.17873 3.00033,4.68608"
       style="fill:none;stroke:#000000;stroke-width:0.66589302;stroke-linecap:butt;stroke-linejoin:round;stroke-miterlimit:4;stroke-dasharray:none;stroke-opacity:1" />
    <path
       id="path823-6"
       d="m 22.857027,125.8926 c 0.843205,-0.80597 1.209026,-7.03672 1.209026,-7.03672 0,0 35.216731,-0.4865 40.348167,0.059 5.131437,0.5455 19.964853,1.58467 21.039164,1.5434 1.074302,-0.0413 17.024766,2.06888 18.238106,2.14606 1.21333,0.0772 15.07244,1.03619 19.08685,0.51066 4.01438,-0.52553 27.78922,-2.06394 30.47497,-2.16711 2.68578,-0.10318 8.59446,-0.33017 11.67833,-0.5724 0,0 11.14763,-1.6708 15.05429,-1.4708 0,0 1.64129,4.63535 4.1966,6.51051 0,0 -0.23578,5.57171 2.06682,6.76737"
       style="fill:none;stroke:#000000;stroke-width:0.66589302;stroke-linecap:round;stroke-linejoin:round;stroke-miterlimit:4;stroke-dasharray:none;stroke-opacity:1" />
    <path
       id="path825-0"
       d="m 184.18253,125.41518 c -10.43745,-0.94144 -21.86521,3.28739 -32.6564,3.08439 l -26.18144,1.12955 c 0,0 -13.45731,-0.22562 -22.4926,-0.8687 -12.24312,-0.69293 -21.788353,-1.14208 -33.954565,-1.66606 -3.366703,-0.11818 -16.324833,-1.35317 -22.67436,-2.09943 -6.349526,-0.74622 -23.366139,0.89764 -23.366139,0.89764 0,0 -0.265769,5.92603 -0.949946,6.77924"
       style="fill:none;stroke:#000000;stroke-width:0.66589302;stroke-linecap:butt;stroke-linejoin:round;stroke-miterlimit:4;stroke-dasharray:none;stroke-opacity:1" />
    <path
       id="path819-2-6"
       d="m 25.725953,98.175196 -0.03702,-4.861986 c 0,0 12.311584,-0.988659 15.553696,-1.216352 3.889607,-0.273187 15.051879,-0.375275 17.068836,-0.284432 10.594306,0.545925 21.428916,1.088982 31.93921,2.317324 0,0 13.766715,0.596596 17.131605,0.748386 4.44574,0.200499 21.13808,0.436991 22.20977,0.508254 4.71908,0.313788 19.01527,-0.08569 24.72328,-0.578485 3.99345,-0.344829 10.13859,0.470704 10.13859,0.470704 0,0 2.71906,6.364841 3.62158,7.103751"
       style="fill:none;stroke:#000000;stroke-width:0.66589302;stroke-linecap:round;stroke-linejoin:round;stroke-miterlimit:4;stroke-dasharray:none;stroke-opacity:1" />
    <path
       id="path821-7-2"
       d="m 24.066053,118.85588 c 1.398631,-1.50953 0.731348,-6.98057 0.731348,-6.98057 0,0 12.474563,-0.85054 17.04036,-1.02594 4.565795,-0.1754 21.399301,0.41564 21.399301,0.41564 0,0 18.301168,0.28709 22.636369,1.11071 4.335204,0.82361 22.891179,3.41776 25.989849,3.53602 4.84862,0.18505 17.07349,0.43681 19.74974,0.0864 3.66343,-0.47956 14.85764,-0.91967 16.88008,-1.44856 3.32872,-0.87049 16.25361,-0.50064 16.25361,-0.50064 l 8.51226,-0.47333 c 0,0 0.95936,3.7681 5.85784,5.25082"
       style="fill:none;stroke:#000000;stroke-width:0.66589302;stroke-linecap:round;stroke-linejoin:round;stroke-miterlimit:4;stroke-dasharray:none;stroke-opacity:1" />
    <path
       id="path857-6"
       d="m 21.370338,141.31097 c 1.003842,-5.37613 0.536742,-8.63916 0.536742,-8.63916 0,0 33.202409,-0.40912 43.316755,0.31624 10.114339,0.7254 29.393511,1.96507 33.412666,1.56314 5.779139,-0.0982 18.704039,0.27162 22.603139,0.2456 3.89912,-0.026 26.11837,0.72941 31.87853,0.13681 5.76016,-0.59259 14.01021,-1.33209 14.01021,-1.33209 l 9.85267,-1.32546 c 0,0 7.53557,-0.63956 9.2683,-0.0935 0,0 -1.70738,4.49965 1.65982,8.55062"
       style="fill:none;stroke:#000000;stroke-width:0.66589302;stroke-linecap:butt;stroke-linejoin:round;stroke-miterlimit:4;stroke-dasharray:none;stroke-opacity:1" />
    <path
       id="path859-1"
       d="m 20.945228,149.64344 c 0,0 15.122335,-1.94241 30.766229,-0.81061 15.643898,1.13178 30.966994,0.91444 33.911835,0.55379 2.94485,-0.36066 20.809918,-0.9232 29.835728,-0.52734 9.58666,0.99318 20.57457,-0.0478 28.77565,-0.1153 16.36181,0.28665 21.8937,0.0209 33.88922,-0.3333 2.47054,-0.0512 8.25449,-0.49214 11.2077,0.88221"
       style="fill:none;stroke:#000000;stroke-width:0.66589302;stroke-linecap:round;stroke-linejoin:round;stroke-miterlimit:4;stroke-dasharray:none;stroke-opacity:1" />
    <path
       id="path881-2"
       d="m 20.945228,149.64344 c 2.485289,-2.10456 0.42511,-8.33247 0.42511,-8.33247 0,0 13.188822,-0.76922 21.934857,-0.84266 8.746032,-0.0734 23.246494,1.11989 25.908627,1.10514 2.662123,-0.0147 28.666661,-1.36382 35.730348,-0.67246 7.06367,0.69133 22.98847,1.82993 27.25145,1.40363 4.26294,-0.42633 26.79222,0.58983 31.66401,-0.0787 l 10.26243,-1.44448 c 0,0 10.77632,-1.683 13.78711,-0.0483 0,0 -4.17948,4.51418 1.42242,8.55972"
       style="fill:none;stroke:#000000;stroke-width:0.66589302;stroke-linecap:butt;stroke-linejoin:round;stroke-miterlimit:4;stroke-dasharray:none;stroke-opacity:1" />
    <path
       id="path908-2"
       d="M 184.12803,123.99663 Z"
       style="fill:none;stroke:#000000;stroke-width:0.73988116px;stroke-linecap:butt;stroke-linejoin:miter;stroke-opacity:1" />
    <path
       id="path821-2"
       d="m 87.15997,213.40032 c 0,0 1.901431,3.08755 -13.01745,2.77044 -14.918879,-0.31709 -11.295728,-17.12374 -34.313428,-19.6606 -23.01771,-2.53685 -28.968772,1.75195 -28.968772,1.75195 l 0.856942,1.41866"
       style="fill:none;stroke:#000000;stroke-width:0.66600001;stroke-linecap:butt;stroke-linejoin:round;stroke-miterlimit:4;stroke-dasharray:none;stroke-opacity:1" />
    <path
       id="path823-5"
       d="m 45.892165,197.63527 c 0,0 15.675865,-2.07643 24.840326,3.31439 9.164455,5.39082 19.607684,18.07507 28.558999,17.12376 8.95134,-0.95133 9.80385,-1.58555 9.80385,-1.58555"
       style="fill:none;stroke:#000000;stroke-width:0.66600001;stroke-linecap:butt;stroke-linejoin:miter;stroke-miterlimit:4;stroke-dasharray:none;stroke-opacity:1" />
    <path
       id="path825-4"
       d="m 58.42441,197.14439 c 0,0 5.299028,-1.85539 11.053462,-0.26986 5.754424,1.58552 20.578512,14.12066 23.443956,15.53821 2.960672,1.46465 6.795926,4.07513 16.173512,4.07513 9.37757,0 14.66275,17.87364 21.95205,32.66197 8.4237,17.08977 34.49918,20.94294 34.49918,20.94294 0,0 3.93779,-3.13749 3.57415,-3.69922"
       style="fill:none;stroke:#000000;stroke-width:0.61851871px;stroke-linecap:butt;stroke-linejoin:round;stroke-opacity:1" />
    <path
       id="path827"
       d="m 34.349994,196.17608 c 0,0 10.807266,3.18807 22.316119,13.96968 11.508851,10.7816 18.22721,6.36937 18.22721,6.36937"
       style="fill:none;stroke:#000000;stroke-width:0.66600001;stroke-linecap:round;stroke-linejoin:miter;stroke-miterlimit:4;stroke-dasharray:none;stroke-opacity:1" />
    <path
       id="path829"
       d="m 66.552017,216.67908 -24.028328,9.39211 c 0,0 -2.316472,0.46951 -2.221978,-1.27863"
       style="fill:none;stroke:#000000;stroke-width:0.66600001;stroke-linecap:butt;stroke-linejoin:miter;stroke-miterlimit:4;stroke-dasharray:none;stroke-opacity:1" />
    <path
       id="path831"
       d="m 77.599804,201.28263 c 0,0 8.78398,-5.82466 26.384606,-4.3945 20.62443,1.52467 35.48718,6.39249 50.33388,18.22186 14.03809,11.18509 42.1529,14.56432 42.1529,14.56432 0,0 -7.71209,2.64648 -9.11525,4.88486"
       style="fill:none;stroke:#000000;stroke-width:0.66600001;stroke-linecap:butt;stroke-linejoin:round;stroke-miterlimit:4;stroke-dasharray:none;stroke-opacity:1" />
    <path
       id="path833"
       d="m 81.15363,203.68187 c 0,0 8.334033,-5.58617 19.62975,-4.63485 11.29574,0.95132 23.0177,6.34211 33.24781,13.31847 10.23008,6.97633 21.0713,15.58925 31.51452,20.66295 10.44321,5.07368 28.32116,6.672 28.32116,6.672"
       style="fill:none;stroke:#000000;stroke-width:0.66600001;stroke-linecap:butt;stroke-linejoin:round;stroke-miterlimit:4;stroke-dasharray:none;stroke-opacity:1" />
    <path
       id="path835"
       d="m 84.608545,206.25811 c 0,0 6.932362,-4.933 16.426685,-3.58764 9.49432,1.34538 21.85201,2.91498 31.49702,14.12637 14.83029,18.90872 27.77486,30.15673 51.83326,32.01913 l 1.71689,-4.3214"
       style="fill:none;stroke:#000000;stroke-width:0.66600001;stroke-linecap:butt;stroke-linejoin:round;stroke-miterlimit:4;stroke-dasharray:none;stroke-opacity:1" />
    <path
       id="path837"
       d="m 86.262877,207.74702 c 0,0 9.042219,-4.93305 18.084423,-2.01808 9.04221,2.91498 15.97457,2.69075 29.08577,19.50786 13.1112,16.8171 15.41257,27.17668 47.99404,28.34989 l 1.44249,-4.76901"
       style="fill:none;stroke:#000000;stroke-width:0.66600001;stroke-linecap:butt;stroke-linejoin:round;stroke-miterlimit:4;stroke-dasharray:none;stroke-opacity:1" />
    <path
       id="path839"
       d="m 89.309622,209.90575 c 21.959698,-4.21762 34.998968,4.33801 44.424858,22.50634 13.11411,23.48287 37.05846,25.45505 37.05846,25.45505 0,0 2.42562,-3.76353 3.98477,-4.68485"
       style="fill:none;stroke:#000000;stroke-width:0.66600001;stroke-linecap:butt;stroke-linejoin:round;stroke-miterlimit:4;stroke-dasharray:none;stroke-opacity:1" />
    <path
       id="path841"
       d="m 92.781413,212.25559 c 0,0 6.592671,-2.26632 15.785577,1.09711 9.19291,3.36343 15.07035,7.62375 20.19426,17.71402 9.73834,23.23184 23.64023,27.33159 48.16725,30.6168"
       style="fill:none;stroke:#000000;stroke-width:0.66600001;stroke-linecap:butt;stroke-linejoin:miter;stroke-miterlimit:4;stroke-dasharray:none;stroke-opacity:1" />
    <path
       id="path843"
       d="m 39.963586,198.58382 c 0,0 -21.12738,0.23405 -26.916838,3.89354 0,0 2.523556,1.40148 2.854286,2.81889"
       style="fill:none;stroke:#000000;stroke-width:0.66600001;stroke-linecap:round;stroke-linejoin:round;stroke-miterlimit:4;stroke-dasharray:none;stroke-opacity:1" />
    <path
       id="path845"
       d="m 46.181115,202.01819 c 0,0 -24.132669,-1.08448 -31.41401,4.08126 0,0 1.490777,1.03103 1.786298,2.29077"
       style="fill:none;stroke:#000000;stroke-width:0.66600001;stroke-linecap:butt;stroke-linejoin:round;stroke-miterlimit:4;stroke-dasharray:none;stroke-opacity:1" />
    <path
       id="path847"
       d="m 49.217784,203.95307 c 0,0 -30.339888,-0.0573 -33.222255,5.07569 0,0 2.739104,0.32438 2.975339,1.9307"
       style="fill:none;stroke:#000000;stroke-width:0.66600001;stroke-linecap:butt;stroke-linejoin:round;stroke-miterlimit:4;stroke-dasharray:none;stroke-opacity:1" />
    <path
       id="path849"
       d="m 51.282275,205.68634 c 0,0 -27.98567,0.57965 -32.766018,5.76551 0,0 1.067634,0.39503 1.705469,1.81244"
       style="fill:none;stroke:#000000;stroke-width:0.66600001;stroke-linecap:butt;stroke-linejoin:round;stroke-miterlimit:4;stroke-dasharray:none;stroke-opacity:1" />
    <path
       id="path851"
       d="m 55.754846,209.30712 c 0,0 -25.145405,5.00499 -31.379368,9.603 0,0 2.24822,2.19717 2.24822,2.85863"
       style="fill:none;stroke:#000000;stroke-width:0.66600001;stroke-linecap:butt;stroke-linejoin:round;stroke-miterlimit:4;stroke-dasharray:none;stroke-opacity:1" />
    <path
       id="path853"
       d="m 58.256472,211.55271 c 0,0 -23.459478,10.76361 -27.493562,11.74229 0,0 -6.493229,-0.20279 -4.678386,-1.19525"
       style="fill:none;stroke:#000000;stroke-width:0.66600001;stroke-linecap:round;stroke-linejoin:round;stroke-miterlimit:4;stroke-dasharray:none;stroke-opacity:1" />
    <path
       id="path855"
       d="m 60.299282,213.15665 c 0,0 -21.891192,10.43441 -23.441883,10.53571 0,0 -5.083775,1.31281 -4.989281,-0.52982"
       style="fill:none;stroke:#000000;stroke-width:0.66600001;stroke-linecap:butt;stroke-linejoin:miter;stroke-miterlimit:4;stroke-dasharray:none;stroke-opacity:1" />
    <path
       id="path831-5"
       d="m 70.554696,197.18681 c 0,0 15.717251,-5.60602 26.214619,-5.70791 11.700055,0.43266 46.966165,-0.87969 62.315155,8.9955 13.67451,8.79786 34.14595,15.95276 34.14595,15.95276 0,0 1.30839,3.33196 -0.92999,4.86876"
       style="fill:none;stroke:#000000;stroke-width:0.66600001;stroke-linecap:butt;stroke-linejoin:round;stroke-miterlimit:4;stroke-dasharray:none;stroke-opacity:1" />
    <path
       id="path831-5-4"
       d="m 73.006818,198.53328 c 0,0 9.302783,-4.93785 19.800151,-5.03974 8.492821,0.16539 51.091641,1.65599 65.938341,13.48536 14.03809,11.1851 34.49381,14.5342 34.49381,14.5342 0,0 1.09924,3.29073 0.33084,4.39322"
       style="fill:none;stroke:#000000;stroke-width:0.66600001;stroke-linecap:butt;stroke-linejoin:round;stroke-miterlimit:4;stroke-dasharray:none;stroke-opacity:1" />
    <path
       id="path849-6"
       d="m 54.40358,208.05979 c 0,0 -26.753314,4.32953 -32.667592,7.34202 0,0 3.352182,0.43744 3.659287,2.72892"
       style="fill:none;stroke:#000000;stroke-width:0.66600001;stroke-linecap:butt;stroke-linejoin:round;stroke-miterlimit:4;stroke-dasharray:none;stroke-opacity:1" />
    <path
       id="path843-9"
       d="m 36.78497,197.14671 c 0,0 -20.135192,-0.42741 -25.92465,3.23208 l 4.353222,0.90838"
       style="fill:none;stroke:#000000;stroke-width:0.66600001;stroke-linecap:round;stroke-linejoin:round;stroke-miterlimit:4;stroke-dasharray:none;stroke-opacity:1" />
    <path
       id="path855-2"
       d="m 62.393446,214.72766 c 0,0 -21.347852,10.12731 -22.780425,10.11049 0,0 -2.689472,-0.54169 -1.720908,-1.41576"
       style="fill:none;stroke:#000000;stroke-width:0.66600001;stroke-linecap:round;stroke-linejoin:miter;stroke-miterlimit:4;stroke-dasharray:none;stroke-opacity:1" />
    <path
       id="path849-6-2"
       d="m 52.557945,206.67853 c 0,0 -26.847809,3.95155 -32.762087,6.96404 0,0 1.276315,0.16506 2.315749,1.4171"
       style="fill:none;stroke:#000000;stroke-width:0.66600001;stroke-linecap:butt;stroke-linejoin:round;stroke-miterlimit:4;stroke-dasharray:none;stroke-opacity:1" />
    <path
       id="path855-2-4"
       d="m 56.7494,210.31882 c 0,0 -28.611377,10.66995 -30.664876,11.78093"
       style="fill:none;stroke:#000000;stroke-width:0.66600001;stroke-linecap:butt;stroke-linejoin:miter;stroke-miterlimit:4;stroke-dasharray:none;stroke-opacity:1" />
    <path
       id="path2024"
       d="M 39.613019,224.83815 Z"
       style="fill:none;stroke:#000000;stroke-width:0.26458332px;stroke-linecap:butt;stroke-linejoin:miter;stroke-opacity:1" />
    <path
       id="path827-7"
       d="m 39.821845,196.51439 c 0,0 7.925196,1.8179 19.434049,12.59951 0,0 7.990202,8.78582 14.172771,7.165"
       style="fill:none;stroke:#000000;stroke-width:0.66600001;stroke-linecap:round;stroke-linejoin:miter;stroke-miterlimit:4;stroke-dasharray:none;stroke-opacity:1" />
    <path
       id="path827-7-7"
       d="M 79.523847,216.10047 C 66.628767,215.88686 61.150761,198.52853 51.074032,197.31841"
       style="fill:none;stroke:#000000;stroke-width:0.66600001;stroke-linecap:round;stroke-linejoin:miter;stroke-miterlimit:4;stroke-dasharray:none;stroke-opacity:1" />
    <path
       id="path827-7-5"
       d="m 58.42441,197.14439 c 0,0 9.673337,-2.48158 21.182189,8.30003 0,0 13.233639,14.97518 25.180351,10.89752"
       style="fill:none;stroke:#000000;stroke-width:0.66600001;stroke-linecap:round;stroke-linejoin:miter;stroke-miterlimit:4;stroke-dasharray:none;stroke-opacity:1" />
    <path
       id="path827-7-7-4"
       d="M 84.008759,215.4447 C 71.357535,215.1239 65.801368,198.59076 55.653439,197.37135"
       style="fill:none;stroke:#000000;stroke-width:0.66600001;stroke-linecap:round;stroke-linejoin:miter;stroke-miterlimit:4;stroke-dasharray:none;stroke-opacity:1" />
    <path
       id="path827-7-7-8"
       d="M 85.82534,215.02875 C 73.579302,214.40411 68.827779,199.38965 58.792936,198.18382"
       style="fill:none;stroke:#000000;stroke-width:0.66600001;stroke-linecap:round;stroke-linejoin:miter;stroke-miterlimit:4;stroke-dasharray:none;stroke-opacity:1" />
    <path
       id="path827-7-7-8-1"
       d="M 86.947522,214.34792 C 76.207019,213.53963 71.908024,199.2347 62.6082,198.1172"
       style="fill:none;stroke:#000000;stroke-width:0.66600001;stroke-linecap:round;stroke-linejoin:miter;stroke-miterlimit:4;stroke-dasharray:none;stroke-opacity:1" />
    <path
       id="path827-7-7-4-2"
       d="M 81.977124,215.61573 C 69.325898,215.29493 63.769731,198.76179 53.621802,197.54238"
       style="fill:none;stroke:#000000;stroke-width:0.66600001;stroke-linecap:round;stroke-linejoin:miter;stroke-miterlimit:4;stroke-dasharray:none;stroke-opacity:1" />
    <path
       id="path831-5-4-8"
       d="m 75.652656,200.12079 c 0,0 9.302783,-4.93785 19.800152,-5.03974 8.492832,0.16539 40.418512,1.82563 55.544002,13.29637 14.57263,11.05147 43.37815,17.80732 43.37815,17.80732 0,0 1.36656,2.32745 1.23293,3.16267"
       style="fill:none;stroke:#000000;stroke-width:0.66600001;stroke-linecap:butt;stroke-linejoin:round;stroke-miterlimit:4;stroke-dasharray:none;stroke-opacity:1" />
    <path
       id="path841-9"
       d="m 99.656318,215.2713 c 14.673562,-4.1016 22.429422,7.96259 27.553332,18.05286 7.2039,18.36421 21.87444,33.47287 43.85783,32.97148 0,0 4.94913,-3.77703 4.57333,-4.72127"
       style="fill:none;stroke:#000000;stroke-width:0.66600001;stroke-linecap:butt;stroke-linejoin:round;stroke-miterlimit:4;stroke-dasharray:none;stroke-opacity:1" />
    <path
       id="path831-6"
       d="m 79.276028,202.46671 c 0,0 8.945867,-4.91034 20.004868,-4.4293 20.624434,1.52467 33.447924,7.9975 48.294624,19.82687 14.03809,11.18509 40.54929,17.10338 40.54929,17.10338 0,0 1.69289,2.25006 5.74206,4.73278"
       style="fill:none;stroke:#000000;stroke-width:0.66600001;stroke-linecap:round;stroke-linejoin:round;stroke-miterlimit:4;stroke-dasharray:none;stroke-opacity:1" />
    <path
       id="path831-8"
       d="m 82.747012,205.06748 c 0,0 8.323016,-5.77806 21.964918,-3.86323 17.78399,2.70718 28.33531,13.53487 43.32154,27.96208 14.92107,14.36448 40.48546,15.3787 40.48546,15.3787 0,0 1.6031,-4.63343 2.33543,-5.20039"
       style="fill:none;stroke:#000000;stroke-width:0.66600001;stroke-linecap:butt;stroke-linejoin:round;stroke-miterlimit:4;stroke-dasharray:none;stroke-opacity:1" />
    <path
       id="path2190"
       d="m 170.79294,257.86714 c 0,0 2.06362,0.21175 5.13722,0.54583 l 0.99834,3.27055"
       style="fill:none;stroke:#000000;stroke-width:0.66600001;stroke-linecap:round;stroke-linejoin:round;stroke-miterlimit:4;stroke-dasharray:none;stroke-opacity:1" />
    <text
       id="text2196"
       y="72.990532"
       x="24.58881"
       style="font-style:normal;font-variant:normal;font-weight:normal;font-stretch:normal;font-size:10.58333302px;line-height:1.25;font-family:'Arial Black';-inkscape-font-specification:'Arial Black, ';letter-spacing:0px;word-spacing:0px;fill:#000000;fill-opacity:1;stroke:none;stroke-width:0.26458332"
       xml:space="preserve"><tspan
         style="font-size:7.05555556px;stroke-width:0.26458332"
         y="72.990532"
         x="24.58881"
         id="tspan2194">1- resting state (Rinitial)</tspan><tspan
         id="tspan2236"
         style="font-size:8.46666622px;stroke-width:0.26458332"
         y="86.219696"
         x="24.58881" /></text>
    <text
       id="text2196-0"
       y="166.58421"
       x="25.210011"
       style="font-style:normal;font-variant:normal;font-weight:normal;font-stretch:normal;font-size:10.58333302px;line-height:1.25;font-family:'Arial Black';-inkscape-font-specification:'Arial Black, ';letter-spacing:0px;word-spacing:0px;fill:#000000;fill-opacity:1;stroke:none;stroke-width:0.26458332"
       xml:space="preserve"><tspan
         style="font-size:7.05555556px;stroke-width:0.26458332"
         y="166.58421"
         x="25.210011"
         id="tspan2194-2">2- opened state (Rhigh)</tspan></text>
    <text
       id="text2196-0-1"
       y="245.08032"
       x="25.439777"
       style="font-style:normal;font-variant:normal;font-weight:normal;font-stretch:normal;font-size:10.58333302px;line-height:1.25;font-family:'Arial Black';-inkscape-font-specification:'Arial Black, ';letter-spacing:0px;word-spacing:0px;fill:#000000;fill-opacity:1;stroke:none;stroke-width:0.26458332"
       xml:space="preserve"><tspan
         style="font-size:7.05555556px;stroke-width:0.26458332"
         y="245.08032"
         x="25.439777"
         id="tspan2194-2-0">3- twisted state (Rlow)</tspan><tspan
         id="tspan2238"
         style="font-size:8.46666622px;stroke-width:0.26458332"
         y="258.30948"
         x="25.439777" /></text>
    <ellipse
       ry="1.7008928"
       rx="2.0788691"
       cy="35.0625"
       cx="128.5119"
       id="path2240"
       style="fill:#ff2a2a;fill-opacity:1;stroke:none;stroke-width:0.66600001;stroke-linecap:round;stroke-linejoin:round;stroke-miterlimit:4;stroke-dasharray:none;stroke-opacity:0.86910993" />
    <ellipse
       ry="1.7008928"
       rx="2.0788691"
       cy="47.913689"
       cx="133.04761"
       id="path2240-5"
       style="fill:#ff2a2a;fill-opacity:1;stroke:none;stroke-width:0.66600001;stroke-linecap:round;stroke-linejoin:round;stroke-miterlimit:4;stroke-dasharray:none;stroke-opacity:0.86910993" />
    <ellipse
       ry="1.7008928"
       rx="2.0788691"
       cy="102.24777"
       cx="142.21355"
       id="path2240-1"
       style="fill:#ff2a2a;fill-opacity:1;stroke:none;stroke-width:0.66600001;stroke-linecap:round;stroke-linejoin:round;stroke-miterlimit:4;stroke-dasharray:none;stroke-opacity:0.86910993" />
    <ellipse
       ry="1.7008928"
       rx="2.0788691"
       cy="142.31323"
       cx="146.93823"
       id="path2240-5-1"
       style="fill:#ff2a2a;fill-opacity:1;stroke:none;stroke-width:0.66600001;stroke-linecap:round;stroke-linejoin:round;stroke-miterlimit:4;stroke-dasharray:none;stroke-opacity:0.86910993" />
    <ellipse
       ry="1.7008928"
       rx="2.0788691"
       cy="200.1436"
       cx="132.38615"
       id="path2240-0"
       style="fill:#ff2a2a;fill-opacity:1;stroke:none;stroke-width:0.66600001;stroke-linecap:round;stroke-linejoin:round;stroke-miterlimit:4;stroke-dasharray:none;stroke-opacity:0.86910993" />
    <ellipse
       ry="1.7008928"
       rx="2.0788691"
       cy="212.61681"
       cx="121.42484"
       id="path2240-5-8"
       style="fill:#ff2a2a;fill-opacity:1;stroke:none;stroke-width:0.66600001;stroke-linecap:round;stroke-linejoin:round;stroke-miterlimit:4;stroke-dasharray:none;stroke-opacity:0.86910993" />
    <ellipse
       ry="1.7008928"
       rx="2.0788691"
       cy="288.79803"
       cx="20.788692"
       id="path2240-5-8-5"
       style="fill:#ff2a2a;fill-opacity:1;stroke:none;stroke-width:0.66600001;stroke-linecap:round;stroke-linejoin:round;stroke-miterlimit:4;stroke-dasharray:none;stroke-opacity:0.86910993" />
    <text
       id="text2196-0-1-0"
       y="291.4563"
       x="25.242609"
       style="font-style:normal;font-variant:normal;font-weight:normal;font-stretch:normal;font-size:10.58333302px;line-height:1.25;font-family:'Arial Black';-inkscape-font-specification:'Arial Black, ';letter-spacing:0px;word-spacing:0px;fill:#000000;fill-opacity:1;stroke:none;stroke-width:0.26458332"
       xml:space="preserve"><tspan
         style="font-size:7.05555556px;stroke-width:0.26458332"
         y="291.4563"
         x="25.242609"
         id="tspan2194-2-0-6">connection of measuring probes</tspan><tspan
         id="tspan2238-4"
         style="font-size:8.46666622px;stroke-width:0.26458332"
         y="304.68546"
         x="25.242609" /></text>
  </g>
</svg>
